<svg width="917" height="1024" viewBox="0 0 917 1024" fill="none" xmlns="http://www.w3.org/2000/svg">
<path d="M862.673 985.247L823.732 887.99H840.128L870.498 967.36L900.122 887.99H916.518L862.673 1024H845.531L862.673 985.247Z" fill="#FAFAFA"/>
<path d="M735.354 840.663H749.7V898.793L749.327 902.519C759.202 891.527 770.754 886.124 784.355 886.124C795.161 886.124 803.545 889.477 809.508 895.998C815.47 902.706 818.451 912.021 818.451 923.946V984.871H803.173V925.995C803.173 917.425 801.123 910.904 797.024 906.246C792.739 901.588 786.963 899.352 779.697 899.352C774.107 899.352 768.704 900.843 763.487 904.01C758.084 907.177 753.799 911.462 750.445 916.866V984.871H735.354V840.663Z" fill="#FAFAFA"/>
<path d="M683.574 977.418C678.73 971.27 676.308 961.768 676.308 948.912V865.629H691.213V887.987H721.024V900.098H691.213V946.863C691.213 956.365 692.703 963.258 695.498 967.357C698.293 971.456 702.765 973.506 708.913 973.506C713.385 973.506 717.484 972.388 721.21 970.152L726.799 980.958C720.465 984.871 713.385 986.734 705.746 986.734C695.871 986.734 688.418 983.567 683.574 977.418Z" fill="#FAFAFA"/>
<path d="M590.005 980.773C583.484 976.86 578.267 971.271 574.727 963.818C571.001 956.365 569.138 947.422 569.138 937.175C569.138 927.114 571.001 918.171 574.727 910.346C578.267 902.707 583.484 896.745 590.192 892.459C596.899 888.174 604.724 886.125 613.481 886.125C620.561 886.125 626.896 887.615 632.672 890.596C638.448 893.577 643.105 897.862 646.832 903.266L647.763 887.988H660.619V984.872H647.95L646.645 967.917C642.547 974.065 637.516 978.723 631.554 981.89C625.592 985.058 619.257 986.735 612.736 986.735C604.165 986.735 596.526 984.685 590.005 980.773ZM593.359 962.141C599.135 968.662 606.587 972.016 615.903 972.016C621.306 972.016 626.151 970.712 630.809 967.917C635.28 965.308 638.82 961.396 641.615 956.179C644.41 951.149 645.714 944.814 645.714 937.548V936.057C645.714 923.947 642.733 915.003 636.771 909.228C630.809 903.638 623.542 900.844 614.785 900.844C609.382 900.844 604.352 902.334 599.694 905.129C595.036 907.923 591.496 912.022 588.887 917.426C586.093 922.829 584.788 929.35 584.788 936.616C584.788 947.236 587.583 955.62 593.359 962.141Z" fill="#FAFAFA"/>
<path d="M499.02 982.449C493.43 979.655 488.772 975.556 484.86 970.339V1024H470.513V887.988H484.86V902.334L484.673 904.756C488.959 898.794 493.989 894.136 499.951 890.969C505.727 887.801 512.062 886.125 518.956 886.125C527.526 886.125 534.979 887.988 541.5 891.9C548.021 895.813 553.052 901.589 556.592 909.041C560.132 916.494 561.995 925.437 561.995 935.684C561.995 945.745 560.132 954.689 556.405 962.327C552.679 969.966 547.462 975.928 540.755 980.214C534.047 984.499 526.408 986.735 517.651 986.735C510.758 986.735 504.423 985.244 499.02 982.449ZM494.362 963.445C500.138 969.221 507.404 972.016 516.161 972.016C521.564 972.016 526.595 970.525 531.253 967.731C535.91 964.936 539.45 960.651 542.245 955.247C545.04 949.844 546.344 943.51 546.344 936.243C546.344 925.623 543.549 917.053 537.96 910.532C532.37 904.011 524.918 900.844 515.788 900.844C510.385 900.844 505.541 902.148 500.883 904.756C496.225 907.551 492.499 911.463 489.704 916.494C486.909 921.711 485.419 928.045 485.419 935.312V936.802C485.419 948.913 488.4 957.856 494.362 963.445Z" fill="#FAFAFA"/>
<path d="M386.266 980.586C378.999 976.301 373.223 970.339 369.311 962.7C365.212 955.061 363.162 946.491 363.162 936.616C363.162 926.741 365.212 917.984 369.311 910.346C373.41 902.707 379.185 896.745 386.452 892.459C393.718 888.174 401.916 886.125 411.232 886.125C420.361 886.125 428.746 888.174 436.012 892.459C443.278 896.745 448.868 902.707 452.967 910.346C456.879 917.984 458.929 926.741 458.929 936.616C458.929 946.491 456.879 955.061 452.967 962.7C448.868 970.339 443.278 976.301 436.012 980.586C428.746 984.872 420.361 987.107 411.232 987.107C401.916 987.107 393.532 984.872 386.266 980.586ZM382.725 955.434C385.52 960.837 389.247 965.122 394.277 968.103C399.308 971.271 404.897 972.761 411.232 972.761C417.567 972.761 423.156 971.271 428.187 968.103C433.031 965.122 436.757 960.837 439.552 955.434C442.347 950.031 443.651 943.696 443.651 936.616C443.651 929.536 442.347 923.201 439.552 917.798C436.757 912.395 433.031 908.11 428.187 904.942C423.156 901.961 417.567 900.471 411.232 900.471C404.897 900.471 399.308 901.961 394.277 904.942C389.247 908.11 385.52 912.395 382.725 917.798C379.931 923.201 378.44 929.536 378.44 936.616C378.44 943.696 379.931 950.031 382.725 955.434Z" fill="#FAFAFA"/>
<path d="M290.455 980.586C283.189 976.301 277.599 970.339 273.687 962.7C269.774 955.061 267.725 946.491 267.725 936.616C267.725 926.741 269.774 917.984 273.687 910.346C277.599 902.707 283.003 896.745 290.083 892.459C297.163 888.174 305.174 886.125 314.117 886.125C322.688 886.125 330.141 887.988 336.475 891.9C342.624 895.813 347.468 901.03 350.822 907.737C353.989 914.445 355.666 922.083 355.666 930.654C355.666 933.635 355.48 936.616 355.107 939.597H283.003C283.562 949.844 286.915 957.856 292.877 963.818C298.84 969.966 306.665 972.947 316.167 972.947C322.315 972.947 327.905 971.643 332.935 969.221C337.966 966.799 342.251 963.445 345.791 959.16L353.803 969.78C349.89 974.997 344.301 979.096 337.407 982.263C330.513 985.43 323.061 987.107 315.422 987.107C305.92 987.107 297.722 984.872 290.455 980.586ZM341.133 927.114C340.574 919.289 337.78 912.768 332.749 907.551C327.719 902.52 321.198 899.912 313.559 899.912C306.106 899.912 299.771 902.334 294.368 906.992C288.965 911.836 285.611 918.543 283.934 927.114H341.133Z" fill="#FAFAFA"/>
<path d="M221.855 977.418C217.011 971.27 214.588 961.768 214.588 948.912V865.629H229.494V887.987H259.304V900.098H229.494V946.863C229.494 956.365 230.984 963.258 233.779 967.357C236.574 971.456 241.045 973.506 247.194 973.506C251.665 973.506 255.764 972.388 259.491 970.152L265.08 980.958C258.745 984.871 251.665 986.734 244.026 986.734C234.152 986.734 226.699 983.567 221.855 977.418Z" fill="#FAFAFA"/>
<path d="M143.613 983.195C137.092 980.773 131.689 977.233 127.031 972.575L135.974 961.582C139.514 965.122 143.8 967.917 148.83 970.153C153.861 972.388 159.636 973.506 165.785 973.506C172.679 973.506 178.268 972.016 182.181 969.221C186.093 966.426 187.957 962.514 187.957 957.67C187.957 954.502 186.839 951.894 184.789 949.844C182.74 947.795 180.131 945.932 176.964 944.628C173.797 943.323 169.511 941.646 164.108 939.97C157.214 937.734 151.811 935.498 147.526 933.449C143.241 931.399 139.514 928.604 136.533 925.064C133.552 921.524 132.062 917.053 132.062 911.463C132.062 906.619 133.552 902.334 136.347 898.421C139.142 894.509 143.241 891.528 148.271 889.292C153.302 887.243 158.891 886.125 165.226 886.125C178.827 886.125 189.447 889.478 197.459 896.372L189.82 907.923C181.436 902.52 173.051 899.726 164.481 899.726C159.078 899.726 154.606 900.844 151.439 903.266C148.085 905.688 146.408 908.669 146.408 912.022C146.408 915.562 148.085 918.357 151.625 920.407C155.165 922.456 160.568 924.506 168.207 926.928C175.473 929.35 181.249 931.585 185.907 933.635C190.379 935.684 194.291 938.852 197.645 942.764C200.812 946.677 202.489 951.894 202.489 958.042C202.489 966.799 199.136 973.693 192.615 979.096C185.907 984.499 176.778 987.107 165.412 987.107C157.401 987.107 150.134 985.803 143.613 983.195Z" fill="#FAFAFA"/>
<path d="M29.6243 978.537C20.1222 972.947 12.8558 965.122 7.8253 954.875C2.60843 944.627 0 933.076 0 919.848C0 906.619 2.60843 894.695 7.8253 884.448C12.8558 874.2 20.1222 866.375 29.6243 860.599C38.9402 855.01 49.7465 852.215 61.8571 852.215C73.9677 852.215 84.7741 855.01 94.0899 860.599C103.406 866.375 110.672 874.2 115.703 884.448C120.733 894.695 123.342 906.619 123.342 919.848C123.342 933.076 120.733 944.627 115.703 954.875C110.672 965.122 103.406 972.947 94.0899 978.537C84.7741 984.312 73.9677 987.107 61.8571 987.107C49.7465 987.107 38.9402 984.312 29.6243 978.537ZM22.5443 947.049C26.2706 955.061 31.4875 961.209 38.3812 965.495C45.2749 969.966 53.1002 972.202 61.8571 972.202C70.614 972.202 78.4393 969.966 85.333 965.495C92.0404 961.209 97.2573 955.061 101.17 947.049C104.896 939.224 106.759 930.095 106.759 919.848C106.759 909.6 104.896 900.284 101.17 892.273C97.2573 884.261 92.0404 878.113 85.333 873.641C78.4393 869.356 70.614 867.12 61.8571 867.12C53.1002 867.12 45.2749 869.356 38.3812 873.641C31.4875 878.113 26.2706 884.261 22.5443 892.273C18.6317 900.284 16.7685 909.6 16.7685 919.848C16.7685 930.095 18.6317 939.224 22.5443 947.049Z" fill="#FAFAFA"/>
<path d="M766.179 742.285C761.893 737.627 756.118 735.391 748.851 735.391C743.262 735.391 737.859 736.882 732.642 740.049C727.239 743.216 722.953 747.502 719.6 752.905V820.91H704.694V724.026H719.041V734.832L718.668 738.559C728.543 727.566 740.094 722.163 753.509 722.163C764.315 722.163 772.7 725.517 778.662 732.038C784.624 738.745 787.605 748.061 787.605 759.985V820.91H772.327V762.034C772.327 753.464 770.278 746.943 766.179 742.285Z" fill="#FAFAFA"/>
<path d="M618.393 816.811C611.872 812.898 606.655 807.309 603.115 799.856C599.388 792.404 597.525 783.46 597.525 773.213C597.525 763.152 599.388 754.209 603.115 746.384C606.655 738.745 611.872 732.783 618.579 728.498C625.286 724.212 633.112 722.163 641.869 722.163C648.949 722.163 655.283 723.653 661.059 726.634C666.835 729.615 671.493 733.901 675.219 739.304L676.151 724.026H689.007V820.91H676.337L675.033 803.955C670.934 810.103 665.904 814.761 659.941 817.929C653.979 821.096 647.644 822.773 641.123 822.773C632.553 822.773 624.914 820.723 618.393 816.811ZM621.746 798.179C627.522 804.7 634.975 808.054 644.291 808.054C649.694 808.054 654.538 806.75 659.196 803.955C663.668 801.347 667.208 797.434 670.002 792.217C672.797 787.187 674.101 780.852 674.101 773.586V772.095C674.101 759.985 671.12 751.042 665.158 745.266C659.196 739.676 651.93 736.882 643.173 736.882C637.77 736.882 632.739 738.372 628.081 741.167C623.423 743.962 619.883 748.061 617.275 753.464C614.48 758.867 613.176 765.388 613.176 772.654C613.176 783.274 615.971 791.658 621.746 798.179Z" fill="#FAFAFA"/>
<path d="M570.594 724.03H585.499V820.913H570.594V724.03ZM571.153 688.071C573.016 686.394 575.438 685.463 578.233 685.463C580.841 685.463 583.077 686.394 584.94 688.071C586.803 689.934 587.735 692.17 587.735 694.965C587.735 697.759 586.803 699.995 584.94 701.858C583.077 703.721 580.841 704.653 578.233 704.653C575.438 704.653 573.016 703.721 571.153 701.858C569.289 699.995 568.358 697.759 568.358 694.965C568.358 692.17 569.289 689.934 571.153 688.071Z" fill="#FAFAFA"/>
<path d="M483.933 816.814C477.412 812.901 472.195 807.312 468.655 799.859C464.929 792.406 463.066 783.463 463.066 773.216C463.066 763.155 464.929 754.212 468.655 746.573C472.195 738.934 477.412 732.786 484.12 728.5C490.827 724.215 498.466 722.166 507.223 722.166C514.303 722.166 520.824 723.656 526.6 726.637C532.376 729.618 537.034 733.903 540.76 739.307L540.387 735.021L540.201 676.705H554.734V820.912H542.064L540.946 803.399C536.847 809.547 531.817 814.391 525.854 817.745C519.706 821.099 513.371 822.776 506.664 822.776C498.093 822.776 490.454 820.726 483.933 816.814ZM487.287 798.182C493.063 804.703 500.515 808.057 509.831 808.057C515.234 808.057 520.079 806.753 524.737 803.958C529.208 801.349 532.748 797.437 535.543 792.22C538.338 787.19 539.642 780.855 539.642 773.589V772.098C539.642 759.988 536.661 751.044 530.699 745.269C524.55 739.679 517.284 736.885 508.713 736.885C503.31 736.885 498.28 738.375 493.622 741.17C488.964 743.964 485.424 748.063 482.815 753.467C480.021 758.87 478.716 765.391 478.716 772.657C478.716 783.277 481.511 791.661 487.287 798.182Z" fill="#FAFAFA"/>
<path d="M435.76 724.03H450.665V820.913H435.76V724.03ZM436.319 688.071C438.182 686.394 440.604 685.463 443.399 685.463C446.008 685.463 448.243 686.394 450.107 688.071C451.97 689.934 452.901 692.17 452.901 694.965C452.901 697.759 451.97 699.995 450.107 701.858C448.243 703.721 446.008 704.653 443.399 704.653C440.604 704.653 438.182 703.721 436.319 701.858C434.456 699.995 433.524 697.759 433.524 694.965C433.524 692.17 434.456 689.934 436.319 688.071Z" fill="#FAFAFA"/>
<path d="M369.614 724.026H383.96V734.832L383.587 738.372C393.09 727.566 404.455 722.163 417.497 722.163C421.223 722.163 424.205 722.536 426.44 723.467L422.714 737.254C419.919 735.95 416.566 735.391 412.467 735.391C407.25 735.391 402.219 736.882 397.189 740.049C392.158 743.216 387.873 747.502 384.519 752.905V820.91H369.614V724.026Z" fill="#FAFAFA"/>
<path d="M293.545 816.624C286.278 812.339 280.689 806.377 276.776 798.738C272.864 791.099 270.814 782.529 270.814 772.654C270.814 762.78 272.864 754.023 276.776 746.384C280.689 738.745 286.092 732.783 293.172 728.498C300.252 724.212 308.264 722.163 317.207 722.163C325.778 722.163 333.23 724.026 339.565 727.939C345.713 731.851 350.558 737.068 353.911 743.775C357.079 750.483 358.756 758.122 358.756 766.692C358.756 769.673 358.569 772.654 358.197 775.635H286.092C286.651 785.883 290.005 793.894 295.967 799.856C301.929 806.005 309.754 808.986 319.256 808.986C325.405 808.986 330.994 807.681 336.025 805.259C341.055 802.837 345.341 799.484 348.881 795.198L356.892 805.818C352.98 811.035 347.39 815.134 340.497 818.301C333.603 821.469 326.15 823.146 318.511 823.146C309.009 823.146 300.811 820.91 293.545 816.624ZM344.223 763.152C343.664 755.327 340.869 748.806 335.839 743.589C330.808 738.559 324.287 735.95 316.648 735.95C309.195 735.95 302.861 738.372 297.457 743.03C292.054 747.874 288.701 754.582 287.024 763.152H344.223Z" fill="#FAFAFA"/>
<path d="M128.76 690.493H148.51L193.412 797.624L238.128 690.493H257.692V820.913H241.855V733.904L242.227 718.44L199.375 820.913H186.891L144.038 718.068L144.411 733.904V820.913H128.76V690.493Z" fill="#FAFAFA"/>
<path fill-rule="evenodd" clip-rule="evenodd" d="M580.291 151.845C580.291 43.2222 489.24 -28.1708 458.195 10.7316C428.102 -28.1707 336.097 43.2219 336.097 151.845L336.122 153.773L334.282 153.162C230.916 119.596 134.843 184.08 162.271 225.61C115.951 242.191 155.457 351.703 258.823 385.27C259.436 385.469 260.051 385.656 260.668 385.843L259.518 387.402C195.634 475.28 227.309 586.524 275.304 573.287C276.77 622.438 393.188 618.728 457.072 530.852C457.451 530.331 457.82 529.803 458.19 529.276L459.315 530.852C523.199 618.729 638.85 622.997 641.086 573.287C655.461 577.487 668.465 570.047 677.801 555.188L614.952 536.762L613.366 572.046C613.363 572.103 613.359 572.153 613.354 572.196C613.351 572.221 613.346 572.256 613.342 572.285C613.34 572.298 613.338 572.31 613.337 572.32C613.091 572.587 612.15 573.486 609.773 574.506C603.921 577.018 592.94 578.674 577.626 576.269C547.488 571.536 509.232 552.333 481.766 514.551C478.473 510.021 475.622 505.238 473.211 500.271C478.205 486.4 480.763 471.699 480.848 456.992C471.579 457.342 462.284 456.859 453.127 455.516C453.265 470.855 449.964 486.292 443.179 500.271C440.768 505.238 437.917 510.021 434.625 514.551C407.213 552.257 368.82 571.363 338.535 576.05C323.14 578.432 312.106 576.763 306.27 574.262C304.932 573.689 304.048 573.149 303.509 572.755C303.298 572.601 303.144 572.471 303.036 572.374L301.987 537.158L267.919 546.555C267.818 546.583 267.712 546.603 267.651 546.614C267.321 546.464 266.176 545.848 264.47 543.903C260.271 539.117 255.301 529.19 252.857 513.891C248.047 483.781 254.499 441.484 281.965 403.701C285.258 399.172 288.929 394.984 292.911 391.157C307.591 391.616 322.308 389.525 336.276 385.101C330.084 377.333 324.416 369.266 319.163 361.061C307.584 363.658 295.516 364.256 283.632 362.613C278.161 361.856 272.727 360.624 267.4 358.894C223.047 344.492 193.002 313.903 179.183 286.565C172.158 272.668 170.338 261.664 170.914 255.344C171.046 253.897 171.285 252.89 171.492 252.256C171.574 252.007 171.652 251.819 171.712 251.687L204.898 239.808L185.427 210.33C185.37 210.243 185.331 210.171 185.302 210.116L185.29 210.091C185.331 209.73 185.563 208.451 186.885 206.23C190.143 200.76 198.053 192.971 211.857 185.92C239.023 172.044 281.266 165.106 325.708 179.537C331.036 181.267 336.156 183.461 341.027 186.063C344.537 198.131 349.831 209.65 356.639 220.187C364.725 215.686 373.052 211.488 381.652 207.756C373.554 196.045 367.858 182.607 365.324 168.422C364.353 162.988 363.847 157.443 363.846 151.845C363.847 105.237 383.671 67.2268 405.415 45.6442C416.469 34.6726 426.378 29.5424 432.571 28.1362C433.989 27.8143 435.021 27.7309 435.688 27.7323C435.95 27.733 436.152 27.7488 436.297 27.7644L457.855 55.6368L479.889 28.0229C479.957 27.9384 480.016 27.8765 480.06 27.8308C480.415 27.7586 481.718 27.5698 484.243 28.1411C490.454 29.5469 500.313 34.6579 511.288 45.5999C532.887 67.1336 552.541 105.143 552.541 151.845C552.541 157.443 552.034 162.988 551.064 168.422C538.106 177.226 526.823 188.404 517.829 201.18C526.662 204.42 535.197 208.504 543.294 213.326C551.887 202.19 562.801 192.774 575.361 186.065C580.232 183.463 585.352 181.267 590.68 179.537C635.032 165.134 677.33 172.231 704.587 186.23C718.444 193.347 726.386 201.18 729.638 206.631C730.383 207.88 730.782 208.836 730.987 209.471C731.068 209.72 731.113 209.917 731.142 210.059L711.283 239.163L744.371 251.574C744.44 251.6 744.497 251.627 744.545 251.65L744.622 251.687C744.801 252.003 745.366 253.174 745.602 255.747C746.183 262.086 744.366 273.035 737.345 286.848C724.845 311.441 699.021 338.689 661.305 354.346C661.329 354.336 661.354 354.327 661.38 354.317C661.405 354.307 661.43 354.297 661.455 354.287C668.387 361.105 674.436 368.482 679.946 376.42C766.463 335.771 797.203 241.771 754.12 225.61C781.84 184.985 685.472 119.596 582.105 153.162L580.268 153.775L580.291 151.845Z" fill="#F6D6E0"/>
<path fill-rule="evenodd" clip-rule="evenodd" d="M588.713 340.369C594.295 286.388 552.044 234.822 496.826 221.063C428.268 203.98 376.332 234.493 325.374 270.086C314.283 277.833 310.481 292.556 316.542 304.647L319.108 309.723C345.821 362.101 378.952 411.774 445.135 428.266L447.937 428.93C501.982 441.053 561.266 415.879 581.817 367.222C597.265 371.718 611.725 379.864 623.477 391.157C627.458 394.983 631.13 399.172 634.422 403.701C661.833 441.407 668.153 483.804 663.255 514.038C662.669 517.656 661.936 520.972 661.115 523.994L687.742 531.829C698.265 493.87 692.819 436.849 656.873 387.402C650.079 378.057 641.877 369.689 632.758 362.612C619.596 352.525 604.669 344.925 588.713 340.369ZM554.351 360.382L515.071 350.595L452.417 375.894C445.312 378.763 437.225 375.332 434.355 368.232C431.484 361.131 434.917 353.049 442.021 350.18L469.264 339.18L389.532 319.312C382.097 317.46 377.572 309.934 379.426 302.503C381.28 295.072 388.81 290.55 396.245 292.403L475.96 312.266L457.088 289.788C452.162 283.922 452.928 275.175 458.798 270.253C464.668 265.33 473.419 266.095 478.345 271.962L521.768 323.681L561.337 333.541C562.645 296.885 533.35 258.747 490.114 247.973C434.609 234.142 392.029 257.388 341.555 292.62C368.279 345.863 396.536 387.573 451.847 401.356C494.574 412.003 537.833 392.666 554.351 360.382Z" fill="#CEE4CC"/>
</svg>
