<svg width="1024" height="289" viewBox="0 0 1024 289" fill="none" xmlns="http://www.w3.org/2000/svg">
<path d="M984.363 251.568L955.699 180.003H967.768L990.124 238.407L1011.93 180.003H1024L984.363 280.085H971.746L984.363 251.568Z" fill="#120E0B"/>
<path d="M890.642 145.18H901.203V187.955L900.929 190.697C908.198 182.608 916.701 178.632 926.713 178.632C934.668 178.632 940.839 181.1 945.228 185.898C949.617 190.834 951.811 197.689 951.811 206.463V251.295H940.565V207.971C940.565 201.665 939.056 196.866 936.039 193.439C932.885 190.011 928.633 188.366 923.284 188.366C919.17 188.366 915.192 189.463 911.352 191.794C907.375 194.124 904.22 197.278 901.752 201.253V251.295H890.642V145.18Z" fill="#120E0B"/>
<path d="M852.526 245.81C848.96 241.286 847.178 234.294 847.178 224.834V163.551H858.15V180.003H880.094V188.914H858.15V223.326C858.15 230.318 859.247 235.391 861.304 238.407C863.361 241.423 866.653 242.931 871.179 242.931C874.47 242.931 877.488 242.108 880.231 240.463L884.345 248.415C879.682 251.294 874.47 252.665 868.847 252.665C861.578 252.665 856.092 250.334 852.526 245.81Z" fill="#120E0B"/>
<path d="M783.65 248.279C778.85 245.4 775.01 241.287 772.404 235.803C769.661 230.319 768.289 223.738 768.289 216.198C768.289 208.795 769.661 202.214 772.404 196.456C775.01 190.835 778.85 186.447 783.787 183.294C788.725 180.141 794.485 178.633 800.931 178.633C806.143 178.633 810.806 179.73 815.058 181.923C819.309 184.117 822.738 187.27 825.481 191.246L826.167 180.004H835.63V251.295H826.304L825.344 238.819C822.327 243.343 818.623 246.771 814.235 249.102C809.846 251.432 805.183 252.666 800.382 252.666C794.074 252.666 788.45 251.158 783.65 248.279ZM786.119 234.569C790.371 239.368 795.856 241.835 802.714 241.835C806.691 241.835 810.257 240.876 813.686 238.819C816.978 236.9 819.584 234.021 821.641 230.182C823.698 226.48 824.658 221.819 824.658 216.472V215.375C824.658 206.464 822.464 199.883 818.075 195.633C813.686 191.52 808.337 189.464 801.891 189.464C797.914 189.464 794.211 190.56 790.782 192.617C787.353 194.673 784.747 197.69 782.827 201.665C780.77 205.641 779.81 210.44 779.81 215.787C779.81 223.601 781.867 229.771 786.119 234.569Z" fill="#120E0B"/>
<path d="M716.675 249.513C712.56 247.456 709.131 244.44 706.251 240.601V280.086H695.691V180.004H706.251V190.56L706.114 192.343C709.268 187.956 712.971 184.528 717.36 182.197C721.612 179.867 726.275 178.633 731.35 178.633C737.659 178.633 743.145 180.004 747.945 182.883C752.745 185.762 756.448 190.012 759.054 195.496C761.66 200.98 763.031 207.561 763.031 215.101C763.031 222.504 761.66 229.085 758.917 234.706C756.174 240.327 752.334 244.714 747.396 247.868C742.459 251.021 736.836 252.666 730.39 252.666C725.315 252.666 720.652 251.569 716.675 249.513ZM713.246 235.529C717.497 239.779 722.846 241.835 729.292 241.835C733.27 241.835 736.973 240.739 740.402 238.682C743.83 236.626 746.436 233.472 748.494 229.496C750.551 225.521 751.511 220.859 751.511 215.512C751.511 207.698 749.454 201.391 745.339 196.593C741.225 191.794 735.739 189.464 729.018 189.464C725.041 189.464 721.475 190.423 718.046 192.343C714.617 194.399 711.874 197.278 709.817 200.98C707.76 204.819 706.663 209.48 706.663 214.827V215.924C706.663 224.835 708.857 231.416 713.246 235.529Z" fill="#120E0B"/>
<path d="M633.675 248.142C628.326 244.989 624.075 240.601 621.194 234.98C618.177 229.359 616.668 223.053 616.668 215.787C616.668 208.52 618.177 202.077 621.194 196.456C624.212 190.835 628.463 186.447 633.812 183.294C639.161 180.141 645.196 178.633 652.053 178.633C658.774 178.633 664.945 180.141 670.294 183.294C675.643 186.447 679.758 190.835 682.775 196.456C685.655 202.077 687.164 208.52 687.164 215.787C687.164 223.053 685.655 229.359 682.775 234.98C679.758 240.601 675.643 244.989 670.294 248.142C664.945 251.295 658.774 252.94 652.053 252.94C645.196 252.94 639.024 251.295 633.675 248.142ZM631.069 229.634C633.126 233.609 635.87 236.763 639.573 238.956C643.276 241.287 647.39 242.384 652.053 242.384C656.716 242.384 660.831 241.287 664.534 238.956C668.1 236.763 670.843 233.609 672.9 229.634C674.957 225.658 675.917 220.996 675.917 215.787C675.917 210.577 674.957 205.915 672.9 201.94C670.843 197.964 668.1 194.81 664.534 192.48C660.831 190.286 656.716 189.189 652.053 189.189C647.39 189.189 643.276 190.286 639.573 192.48C635.87 194.81 633.126 197.964 631.069 201.94C629.012 205.915 627.915 210.577 627.915 215.787C627.915 220.996 629.012 225.658 631.069 229.634Z" fill="#120E0B"/>
<path d="M563.149 248.142C557.8 244.989 553.685 240.601 550.805 234.98C547.925 229.359 546.416 223.053 546.416 215.787C546.416 208.52 547.925 202.077 550.805 196.456C553.685 190.835 557.663 186.447 562.874 183.294C568.086 180.141 573.984 178.633 580.567 178.633C586.876 178.633 592.362 180.004 597.025 182.883C601.551 185.762 605.117 189.601 607.585 194.536C609.917 199.472 611.151 205.093 611.151 211.399C611.151 213.593 611.014 215.787 610.74 217.98H557.663C558.074 225.521 560.543 231.416 564.932 235.803C569.32 240.327 575.081 242.521 582.075 242.521C586.601 242.521 590.716 241.561 594.419 239.779C598.122 237.997 601.277 235.529 603.882 232.376L609.78 240.19C606.9 244.029 602.785 247.045 597.711 249.376C592.636 251.706 587.15 252.94 581.527 252.94C574.532 252.94 568.498 251.295 563.149 248.142ZM600.454 208.795C600.042 203.036 597.985 198.238 594.282 194.399C590.579 190.698 585.778 188.778 580.155 188.778C574.669 188.778 570.006 190.56 566.029 193.988C562.051 197.552 559.583 202.488 558.348 208.795H600.454Z" fill="#120E0B"/>
<path d="M512.65 245.81C509.085 241.286 507.302 234.294 507.302 224.834V163.551H518.274V180.003H540.218V188.914H518.274V223.326C518.274 230.318 519.371 235.391 521.428 238.407C523.485 241.423 526.777 242.931 531.303 242.931C534.595 242.931 537.612 242.108 540.355 240.463L544.469 248.415C539.806 251.294 534.595 252.665 528.971 252.665C521.702 252.665 516.216 250.334 512.65 245.81Z" fill="#120E0B"/>
<path d="M455.056 250.061C450.255 248.279 446.278 245.674 442.849 242.247L449.433 234.158C452.038 236.763 455.193 238.819 458.896 240.464C462.599 242.11 466.851 242.932 471.377 242.932C476.451 242.932 480.566 241.835 483.446 239.779C486.326 237.722 487.698 234.843 487.698 231.279C487.698 228.948 486.875 227.029 485.366 225.521C483.857 224.012 481.937 222.642 479.606 221.682C477.274 220.722 474.12 219.488 470.142 218.254C465.068 216.609 461.09 214.964 457.936 213.456C454.781 211.948 452.038 209.891 449.844 207.286C447.65 204.682 446.552 201.391 446.552 197.278C446.552 193.714 447.65 190.56 449.707 187.681C451.764 184.802 454.781 182.609 458.485 180.964C462.188 179.455 466.302 178.633 470.965 178.633C480.977 178.633 488.795 181.101 494.692 186.173L489.069 194.673C482.897 190.698 476.726 188.641 470.417 188.641C466.439 188.641 463.148 189.464 460.816 191.246C458.347 193.028 457.113 195.222 457.113 197.69C457.113 200.294 458.347 202.351 460.953 203.859C463.559 205.367 467.536 206.875 473.16 208.657C478.508 210.44 482.76 212.085 486.189 213.593C489.481 215.101 492.361 217.432 494.829 220.311C497.161 223.19 498.395 227.029 498.395 231.553C498.395 237.997 495.927 243.069 491.126 247.045C486.189 251.021 479.469 252.94 471.102 252.94C465.205 252.94 459.856 251.981 455.056 250.061Z" fill="#120E0B"/>
<path d="M371.148 246.632C364.153 242.519 358.804 236.761 355.101 229.22C351.261 221.68 349.341 213.18 349.341 203.446C349.341 193.712 351.261 184.937 355.101 177.397C358.804 169.857 364.153 164.098 371.148 159.848C378.005 155.735 385.96 153.679 394.875 153.679C403.789 153.679 411.744 155.735 418.602 159.848C425.459 164.098 430.808 169.857 434.511 177.397C438.214 184.937 440.134 193.712 440.134 203.446C440.134 213.18 438.214 221.68 434.511 229.22C430.808 236.761 425.459 242.519 418.602 246.632C411.744 250.882 403.789 252.938 394.875 252.938C385.96 252.938 378.005 250.882 371.148 246.632ZM365.936 223.462C368.679 229.357 372.519 233.882 377.594 237.035C382.668 240.325 388.428 241.97 394.875 241.97C401.321 241.97 407.081 240.325 412.155 237.035C417.093 233.882 420.933 229.357 423.813 223.462C426.556 217.704 427.928 210.986 427.928 203.446C427.928 195.905 426.556 189.05 423.813 183.155C420.933 177.26 417.093 172.736 412.155 169.445C407.081 166.292 401.321 164.647 394.875 164.647C388.428 164.647 382.668 166.292 377.594 169.445C372.519 172.736 368.679 177.26 365.936 183.155C363.056 189.05 361.684 195.905 361.684 203.446C361.684 210.986 363.056 217.704 365.936 223.462Z" fill="#120E0B"/>
<path d="M822.255 72.7924C819.1 69.365 814.849 67.7198 809.5 67.7198C805.385 67.7198 801.408 68.8166 797.568 71.1472C793.59 73.4779 790.436 76.6312 787.967 80.6071V130.648H776.995V59.3567H787.556V67.3085L787.281 70.0504C794.55 61.9616 803.054 57.9858 812.928 57.9858C820.883 57.9858 827.055 60.4535 831.444 65.252C835.833 70.1875 838.027 77.0425 838.027 85.8168V130.648H826.781V87.3249C826.781 81.0183 825.272 76.2199 822.255 72.7924Z" fill="#120E0B"/>
<path d="M713.468 127.632C708.667 124.753 704.827 120.64 702.221 115.156C699.478 109.672 698.107 103.091 698.107 95.5508C698.107 88.1475 699.478 81.5667 702.221 75.8086C704.827 70.1876 708.667 65.8004 713.605 62.6471C718.542 59.4938 724.303 57.9858 730.749 57.9858C735.96 57.9858 740.623 59.0826 744.875 61.2761C749.127 63.4697 752.556 66.623 755.299 70.5988L755.984 59.3567H765.448V130.648H756.121L755.161 118.172C752.144 122.696 748.441 126.124 744.052 128.455C739.663 130.785 735 132.019 730.2 132.019C723.891 132.019 718.268 130.511 713.468 127.632ZM715.936 113.922C720.188 118.72 725.674 121.188 732.532 121.188C736.509 121.188 740.075 120.229 743.504 118.172C746.795 116.253 749.401 113.374 751.458 109.535C753.516 105.833 754.476 101.172 754.476 95.825V94.7282C754.476 85.8168 752.281 79.2361 747.892 74.986C743.504 70.873 738.155 68.8166 731.709 68.8166C727.731 68.8166 724.028 69.9134 720.599 71.9698C717.171 74.0263 714.565 77.0425 712.645 81.0183C710.587 84.9942 709.627 89.7927 709.627 95.1395C709.627 102.954 711.685 109.124 715.936 113.922Z" fill="#120E0B"/>
<path d="M678.282 59.3571H689.254V130.648H678.282V59.3571ZM678.694 32.897C680.065 31.6631 681.848 30.9776 683.905 30.9776C685.825 30.9776 687.471 31.6631 688.843 32.897C690.214 34.268 690.9 35.9132 690.9 37.9697C690.9 40.0262 690.214 41.6713 688.843 43.0423C687.471 44.4133 685.825 45.0988 683.905 45.0988C681.848 45.0988 680.065 44.4133 678.694 43.0423C677.322 41.6713 676.636 40.0262 676.636 37.9697C676.636 35.9132 677.322 34.268 678.694 32.897Z" fill="#120E0B"/>
<path d="M614.49 127.631C609.69 124.752 605.85 120.639 603.244 115.155C600.501 109.671 599.129 103.091 599.129 95.5502C599.129 88.1469 600.501 81.5662 603.244 75.9451C605.85 70.3241 609.69 65.7998 614.627 62.6465C619.565 59.4933 625.188 57.9852 631.634 57.9852C636.846 57.9852 641.646 59.082 645.897 61.2755C650.149 63.4691 653.578 66.6224 656.321 70.5983L656.047 67.445L655.909 24.5331H666.607V130.647H657.281L656.458 117.76C653.441 122.284 649.738 125.849 645.349 128.317C640.823 130.785 636.16 132.018 631.222 132.018C624.913 132.018 619.29 130.51 614.49 127.631ZM616.959 113.921C621.21 118.72 626.696 121.188 633.554 121.188C637.531 121.188 641.097 120.228 644.526 118.172C647.818 116.252 650.423 113.373 652.481 109.534C654.538 105.833 655.498 101.171 655.498 95.8244V94.7276C655.498 85.8162 653.304 79.2355 648.915 74.9854C644.389 70.8725 639.04 68.816 632.731 68.816C628.754 68.816 625.051 69.9128 621.622 71.9692C618.193 74.0257 615.587 77.0419 613.667 81.0178C611.61 84.9936 610.65 89.7921 610.65 95.1389C610.65 102.954 612.707 109.123 616.959 113.921Z" fill="#120E0B"/>
<path d="M579.03 59.3571H590.002V130.648H579.03V59.3571ZM579.441 32.897C580.813 31.6631 582.596 30.9776 584.653 30.9776C586.573 30.9776 588.219 31.6631 589.591 32.897C590.962 34.268 591.648 35.9132 591.648 37.9697C591.648 40.0262 590.962 41.6713 589.591 43.0423C588.219 44.4133 586.573 45.0988 584.653 45.0988C582.596 45.0988 580.813 44.4133 579.441 43.0423C578.07 41.6713 577.384 40.0262 577.384 37.9697C577.384 35.9132 578.07 34.268 579.441 32.897Z" fill="#120E0B"/>
<path d="M530.338 59.3567H540.899V67.3085L540.625 69.9134C547.619 61.9616 555.985 57.9858 565.586 57.9858C568.329 57.9858 570.523 58.26 572.169 58.9455L569.426 69.0908C567.369 68.1311 564.9 67.7198 561.883 67.7198C558.043 67.7198 554.34 68.8166 550.637 71.1472C546.934 73.4779 543.779 76.6312 541.31 80.6071V130.648H530.338V59.3567Z" fill="#120E0B"/>
<path d="M474.344 127.495C468.995 124.342 464.88 119.954 462 114.333C459.12 108.712 457.611 102.406 457.611 95.1395C457.611 87.8733 459.12 81.4296 462 75.8086C464.88 70.1876 468.858 65.8004 474.069 62.6471C479.281 59.4938 485.179 57.9858 491.762 57.9858C498.071 57.9858 503.557 59.3568 508.22 62.2358C512.746 65.1149 516.312 68.9537 518.78 73.8892C521.112 78.8248 522.346 84.4458 522.346 90.7524C522.346 92.9459 522.209 95.1395 521.935 97.3331H468.858C469.269 104.874 471.738 110.769 476.127 115.156C480.515 119.68 486.276 121.874 493.27 121.874C497.796 121.874 501.911 120.914 505.614 119.132C509.317 117.35 512.472 114.882 515.077 111.728L520.975 119.543C518.095 123.382 513.98 126.398 508.906 128.729C503.831 131.059 498.345 132.293 492.722 132.293C485.727 132.293 479.693 130.648 474.344 127.495ZM511.649 88.1475C511.237 82.3893 509.18 77.5909 505.477 73.7521C501.774 70.0504 496.974 68.1311 491.35 68.1311C485.864 68.1311 481.201 69.9134 477.224 73.3408C473.246 76.9054 470.778 81.8409 469.543 88.1475H511.649Z" fill="#120E0B"/>
<path d="M353.044 34.6797H367.582L400.635 113.511L433.551 34.6797H447.952V130.649H436.294V66.6237L436.569 55.2445L405.024 130.649H395.835L364.29 54.9703L364.565 66.6237V130.649H353.044V34.6797Z" fill="#120E0B"/>
<path fill-rule="evenodd" clip-rule="evenodd" d="M208.266 72.3287C208.266 20.5883 164.895 -13.4187 150.107 5.11185C135.773 -13.4187 91.9473 20.5881 91.9473 72.3287L91.9593 73.2473L91.0829 72.9566C41.846 56.9678 -3.91713 87.6837 9.14778 107.466C-12.9159 115.364 5.90213 167.529 55.139 183.517C55.4309 183.612 55.7243 183.702 56.0178 183.791L55.4698 184.533C25.04 226.392 40.1277 279.382 62.9898 273.077C63.6882 296.489 119.142 294.722 149.572 252.863C149.753 252.615 149.928 252.364 150.105 252.113L150.641 252.863C181.071 294.722 236.159 296.755 237.224 273.077C244.072 275.077 250.266 271.533 254.713 264.456L224.776 255.679L224.02 272.486C224.019 272.513 224.017 272.537 224.015 272.557C224.013 272.569 224.011 272.586 224.009 272.599C224.008 272.606 224.007 272.612 224.006 272.616C223.889 272.743 223.441 273.172 222.309 273.657C219.521 274.854 214.291 275.643 206.996 274.497C192.64 272.243 174.418 263.095 161.334 245.098C159.766 242.941 158.408 240.663 157.26 238.297C159.639 231.689 160.857 224.687 160.897 217.681C156.482 217.848 152.054 217.618 147.693 216.978C147.758 224.285 146.186 231.638 142.954 238.297C141.806 240.663 140.448 242.941 138.88 245.098C125.822 263.06 107.534 272.16 93.1088 274.393C85.7754 275.528 80.5199 274.732 77.7394 273.541C77.1023 273.268 76.6815 273.011 76.4246 272.823C76.3241 272.75 76.2508 272.688 76.1993 272.642L75.6998 255.867L59.4721 260.343C59.4239 260.357 59.3734 260.366 59.3441 260.372C59.187 260.3 58.6415 260.006 57.8288 259.08C55.8287 256.8 53.4613 252.072 52.2969 244.784C50.0064 230.442 53.0794 210.294 66.1624 192.297C67.7309 190.139 69.4797 188.144 71.3763 186.322C78.369 186.54 85.3794 185.544 92.0329 183.437C89.0831 179.737 86.3832 175.894 83.8812 171.986C78.3654 173.223 72.617 173.508 66.9565 172.725C64.3504 172.365 61.7623 171.778 59.2244 170.954C38.098 164.093 23.786 149.523 17.2036 136.501C13.8576 129.881 12.9908 124.64 13.2648 121.629C13.3276 120.94 13.4416 120.46 13.5405 120.158C13.5793 120.04 13.6166 119.95 13.6449 119.887L29.4528 114.229L20.1782 100.188C20.1509 100.146 20.1323 100.112 20.1184 100.086L20.1125 100.074C20.1322 99.9017 20.2428 99.2925 20.8726 98.2345C22.4241 95.6294 26.1923 91.9187 32.7674 88.5601C45.7074 81.9508 65.8295 78.6458 86.9987 85.5197C89.5366 86.344 91.9755 87.3888 94.2956 88.6283C95.9679 94.3764 98.4893 99.8634 101.732 104.883C105.584 102.739 109.55 100.739 113.647 98.9614C109.789 93.3831 107.076 86.982 105.869 80.225C105.407 77.6366 105.166 74.9955 105.166 72.3287C105.166 50.1279 114.608 32.0224 124.966 21.7419C130.231 16.5158 134.952 14.0721 137.901 13.4023C138.577 13.2489 139.068 13.2092 139.386 13.2099C139.511 13.2102 139.607 13.2177 139.676 13.2251L149.945 26.5017L160.441 13.3483C160.473 13.308 160.501 13.2786 160.522 13.2568C160.691 13.2224 161.312 13.1325 162.514 13.4046C165.473 14.0743 170.169 16.5088 175.397 21.7208C185.685 31.9781 195.047 50.0834 195.047 72.3287C195.047 74.9955 194.806 77.6366 194.344 80.225C188.172 84.419 182.797 89.7433 178.513 95.8292C182.72 97.3722 186.786 99.3179 190.642 101.615C194.736 96.3104 199.934 91.8251 205.917 88.6295C208.238 87.3897 210.676 86.344 213.214 85.5197C234.341 78.6592 254.489 82.0397 267.472 88.7078C274.073 92.0979 277.856 95.8292 279.405 98.426C279.759 99.0206 279.95 99.4758 280.048 99.7782C280.086 99.8969 280.107 99.9909 280.121 100.058L270.662 113.922L286.423 119.833C286.456 119.846 286.483 119.859 286.505 119.87L286.542 119.887C286.627 120.038 286.897 120.595 287.009 121.821C287.286 124.841 286.42 130.056 283.076 136.636C277.122 148.351 264.821 161.33 246.856 168.788C246.867 168.783 246.879 168.778 246.891 168.773C246.903 168.769 246.915 168.764 246.927 168.759C250.229 172.007 253.11 175.521 255.735 179.302C296.945 159.939 311.589 115.164 291.066 107.466C304.27 88.1147 258.367 56.9675 209.13 72.9566L208.255 73.2485L208.266 72.3287Z" fill="#B1536D"/>
<path fill-rule="evenodd" clip-rule="evenodd" d="M212.277 162.13C214.936 136.417 194.811 111.854 168.508 105.3C135.851 97.1626 111.113 111.697 86.8395 128.652C81.5565 132.342 79.7457 139.355 82.6326 145.114L83.8551 147.532C96.5794 172.482 112.361 196.142 143.886 203.998L145.221 204.314C170.964 210.089 199.203 198.098 208.993 174.921C216.351 177.062 223.239 180.943 228.836 186.322C230.733 188.145 232.482 190.14 234.05 192.297C247.107 210.258 250.118 230.453 247.784 244.854C247.505 246.578 247.156 248.157 246.765 249.597L259.448 253.329C264.461 235.248 261.866 208.087 244.744 184.533C241.508 180.082 237.601 176.096 233.258 172.725C226.988 167.92 219.877 164.3 212.277 162.13ZM195.909 171.663L177.199 167.001L147.354 179.052C143.97 180.418 140.118 178.784 138.751 175.402C137.383 172.019 139.019 168.17 142.403 166.803L155.379 161.563L117.4 152.1C113.859 151.217 111.704 147.632 112.586 144.093C113.469 140.553 117.056 138.399 120.598 139.282L158.569 148.744L149.579 138.036C147.233 135.242 147.598 131.076 150.394 128.731C153.19 126.386 157.359 126.751 159.705 129.545L180.389 154.181L199.237 158.877C199.86 141.417 185.906 123.25 165.311 118.118C138.872 111.53 118.589 122.603 94.5471 139.385C107.277 164.747 120.736 184.615 147.083 191.18C167.435 196.251 188.041 187.041 195.909 171.663Z" fill="#5E855C"/>
</svg>
