<svg width="1024" height="1024" viewBox="0 0 1024 1024" fill="none" xmlns="http://www.w3.org/2000/svg">
<path fill-rule="evenodd" clip-rule="evenodd" d="M706.343 241.82C706.343 68.8337 561.34 -44.8635 511.899 17.0907C463.974 -44.8633 317.452 68.8332 317.452 241.82L317.491 244.891L314.561 243.919C149.945 190.463 -3.05702 293.157 40.6235 359.295C-33.1429 385.702 29.7722 560.106 194.389 613.562C195.364 613.879 196.345 614.178 197.326 614.476L195.494 616.958C93.7568 756.908 144.2 934.071 220.636 912.99C222.971 991.265 408.372 985.358 510.111 845.41C510.714 844.58 511.302 843.739 511.891 842.9L513.683 845.41C615.422 985.359 799.602 992.156 803.163 912.99C826.056 919.678 846.765 907.829 861.633 884.167L761.543 854.822L759.017 911.014C759.013 911.104 759.006 911.184 758.998 911.253C758.993 911.292 758.985 911.348 758.978 911.393C758.975 911.415 758.972 911.435 758.97 911.449C758.579 911.875 757.081 913.307 753.296 914.931C743.976 918.931 726.487 921.569 702.1 917.739C654.103 910.202 593.178 879.619 549.436 819.449C544.193 812.236 539.652 804.618 535.813 796.708C543.766 774.617 547.839 751.205 547.975 727.784C533.214 728.341 518.41 727.573 503.829 725.433C504.047 749.862 498.791 774.445 487.985 796.708C484.146 804.618 479.605 812.236 474.362 819.449C430.707 879.499 369.564 909.926 321.334 917.39C296.816 921.184 279.245 918.525 269.949 914.543C267.819 913.631 266.412 912.77 265.553 912.143C265.217 911.897 264.972 911.69 264.8 911.535L263.13 855.453L208.875 870.418C208.714 870.462 208.545 870.494 208.447 870.512C207.922 870.273 206.098 869.291 203.381 866.194C196.694 858.572 188.779 842.763 184.887 818.398C177.228 770.448 187.502 703.086 231.244 642.915C236.487 635.702 242.334 629.032 248.675 622.939C272.054 623.669 295.492 620.339 317.737 613.294C307.875 600.922 298.848 588.075 290.483 575.009C272.042 579.145 252.824 580.097 233.898 577.48C225.185 576.275 216.532 574.313 208.047 571.558C137.414 548.621 89.5641 499.906 67.5569 456.37C56.3701 434.238 53.472 416.714 54.3882 406.648C54.5982 404.344 54.9791 402.74 55.3098 401.731C55.4396 401.335 55.5643 401.035 55.6588 400.825L108.51 381.907L77.502 334.962C77.4108 334.823 77.3487 334.708 77.302 334.621L77.2824 334.581C77.3483 334.006 77.7181 331.969 79.8236 328.432C85.0109 319.722 97.6092 307.316 119.592 296.087C162.855 273.99 230.13 262.94 300.906 285.922C309.391 288.678 317.545 292.171 325.303 296.315C330.893 315.533 339.323 333.878 350.166 350.66C363.042 343.491 376.304 336.805 390 330.862C377.103 312.212 368.032 290.811 363.997 268.22C362.451 259.566 361.644 250.736 361.644 241.82C361.644 167.595 393.215 107.062 427.844 72.6908C445.448 55.2179 461.229 47.0479 471.091 44.8084C473.35 44.2957 474.993 44.1629 476.056 44.1652C476.473 44.1663 476.795 44.1914 477.025 44.2162L511.358 88.6045L546.448 44.628C546.556 44.4933 546.65 44.3948 546.72 44.322C547.285 44.207 549.361 43.9064 553.382 44.8162C563.274 47.0551 578.974 55.1945 596.452 72.6202C630.849 106.914 662.15 167.446 662.15 241.82C662.15 250.736 661.343 259.566 659.798 268.22C639.162 282.242 621.193 300.043 606.87 320.39C620.936 325.549 634.529 332.054 647.423 339.733C661.109 321.999 678.489 307.003 698.492 296.319C706.25 292.174 714.403 288.678 722.888 285.922C793.522 262.985 860.883 274.287 904.292 296.581C926.359 307.915 939.008 320.39 944.186 329.072C945.373 331.06 946.009 332.582 946.335 333.593C946.463 333.99 946.535 334.304 946.583 334.53L914.955 380.88L967.649 400.644C967.76 400.686 967.851 400.729 967.926 400.766L968.049 400.825C968.334 401.328 969.234 403.192 969.61 407.291C970.536 417.386 967.642 434.823 956.461 456.821C936.554 495.987 895.427 539.381 835.363 564.315C835.402 564.299 835.441 564.284 835.481 564.268C835.522 564.253 835.562 564.237 835.602 564.221C846.641 575.079 856.275 586.826 865.049 599.468C1002.83 534.733 1051.79 385.034 983.175 359.295C1027.32 294.598 873.849 190.462 709.233 243.919L706.307 244.895L706.343 241.82Z" fill="#B1536D"/>
<path fill-rule="evenodd" clip-rule="evenodd" d="M719.756 542.056C728.646 456.089 661.359 373.967 573.421 352.055C464.239 324.848 381.528 373.442 300.374 430.127C282.711 442.464 276.657 465.911 286.309 485.167L290.396 493.25C332.938 576.666 385.7 655.772 491.1 682.036L495.562 683.093C581.632 702.4 676.045 662.31 708.774 584.821C733.375 591.981 756.404 604.954 775.119 622.939C781.46 629.032 787.307 635.702 792.551 642.915C836.204 702.964 846.269 770.483 838.468 818.633C837.535 824.394 836.368 829.675 835.061 834.488L877.465 846.966C894.223 786.514 885.55 695.705 828.304 616.958C817.485 602.075 804.422 588.749 789.9 577.48C768.939 561.414 745.166 549.312 719.756 542.056ZM665.032 573.928L602.477 558.341L502.696 598.631C491.382 603.2 478.503 597.737 473.932 586.429C469.36 575.12 474.827 562.25 486.142 557.681L529.526 540.162L402.549 508.522C390.708 505.571 383.503 493.586 386.455 481.752C389.407 469.918 401.4 462.717 413.24 465.667L540.191 497.301L510.135 461.503C502.291 452.16 503.511 438.231 512.859 430.392C522.207 422.552 536.144 423.771 543.989 433.114L613.142 515.479L676.159 531.182C678.241 472.805 631.588 412.068 562.731 394.91C474.337 372.884 406.525 409.905 326.143 466.012C368.703 550.805 413.703 617.231 501.79 639.181C569.834 656.136 638.726 625.341 665.032 573.928Z" fill="#5E855C"/>
</svg>
